<?xml version="1.0" encoding="UTF-8" standalone="no"?><svg xmlns="http://www.w3.org/2000/svg" xmlns:xlink="http://www.w3.org/1999/xlink" contentScriptType="application/ecmascript" contentStyleType="text/css" height="861px" preserveAspectRatio="none" style="width:2416px;height:861px;" version="1.1" viewBox="0 0 2416 861" width="2416px" zoomAndPan="magnify"><defs><filter height="300%" id="f1n7b6uzjr6sge" width="300%" x="-1" y="-1"><feGaussianBlur result="blurOut" stdDeviation="2.0"/><feColorMatrix in="blurOut" result="blurOut2" type="matrix" values="0 0 0 0 0 0 0 0 0 0 0 0 0 0 0 0 0 0 .4 0"/><feOffset dx="4.0" dy="4.0" in="blurOut2" result="blurOut3"/><feBlend in="SourceGraphic" in2="blurOut3" mode="normal"/></filter></defs><g><rect fill="#DDDDDD" height="846.8369" style="stroke: #A80036; stroke-width: 1.0;" width="708" x="4" y="4"/><text fill="#000000" font-family="sans-serif" font-size="13" font-weight="bold" lengthAdjust="spacingAndGlyphs" textLength="80" x="318" y="18.8979">Main Thread</text><rect fill="#ADD8E6" height="846.8369" style="stroke: #A80036; stroke-width: 1.0;" width="1647.5" x="714" y="4"/><text fill="#000000" font-family="sans-serif" font-size="13" font-weight="bold" lengthAdjust="spacingAndGlyphs" textLength="95" x="1490.25" y="18.8979">Worker Thread</text><line style="stroke: #A80036; stroke-width: 1.0; stroke-dasharray: 5.0,5.0;" x1="57" x2="57" y1="63.8745" y2="809.7168"/><line style="stroke: #A80036; stroke-width: 1.0; stroke-dasharray: 5.0,5.0;" x1="182" x2="182" y1="63.8745" y2="809.7168"/><line style="stroke: #A80036; stroke-width: 1.0; stroke-dasharray: 5.0,5.0;" x1="349" x2="349" y1="63.8745" y2="809.7168"/><line style="stroke: #A80036; stroke-width: 1.0; stroke-dasharray: 5.0,5.0;" x1="579" x2="579" y1="63.8745" y2="809.7168"/><line style="stroke: #A80036; stroke-width: 1.0; stroke-dasharray: 5.0,5.0;" x1="761" x2="761" y1="63.8745" y2="809.7168"/><line style="stroke: #A80036; stroke-width: 1.0; stroke-dasharray: 5.0,5.0;" x1="866" x2="866" y1="63.8745" y2="809.7168"/><line style="stroke: #A80036; stroke-width: 1.0; stroke-dasharray: 5.0,5.0;" x1="1001" x2="1001" y1="63.8745" y2="809.7168"/><line style="stroke: #A80036; stroke-width: 1.0; stroke-dasharray: 5.0,5.0;" x1="1156" x2="1156" y1="63.8745" y2="809.7168"/><line style="stroke: #A80036; stroke-width: 1.0; stroke-dasharray: 5.0,5.0;" x1="1272" x2="1272" y1="63.8745" y2="809.7168"/><line style="stroke: #A80036; stroke-width: 1.0; stroke-dasharray: 5.0,5.0;" x1="1366" x2="1366" y1="63.8745" y2="809.7168"/><line style="stroke: #A80036; stroke-width: 1.0; stroke-dasharray: 5.0,5.0;" x1="1480" x2="1480" y1="63.8745" y2="809.7168"/><line style="stroke: #A80036; stroke-width: 1.0; stroke-dasharray: 5.0,5.0;" x1="1613" x2="1613" y1="63.8745" y2="809.7168"/><line style="stroke: #A80036; stroke-width: 1.0; stroke-dasharray: 5.0,5.0;" x1="1785" x2="1785" y1="63.8745" y2="809.7168"/><line style="stroke: #A80036; stroke-width: 1.0; stroke-dasharray: 5.0,5.0;" x1="1912" x2="1912" y1="63.8745" y2="809.7168"/><line style="stroke: #A80036; stroke-width: 1.0; stroke-dasharray: 5.0,5.0;" x1="2027" x2="2027" y1="63.8745" y2="809.7168"/><line style="stroke: #A80036; stroke-width: 1.0; stroke-dasharray: 5.0,5.0;" x1="2142.5" x2="2142.5" y1="63.8745" y2="809.7168"/><line style="stroke: #A80036; stroke-width: 1.0; stroke-dasharray: 5.0,5.0;" x1="2307.5" x2="2307.5" y1="63.8745" y2="809.7168"/><line style="stroke: #A80036; stroke-width: 1.0; stroke-dasharray: 5.0,5.0;" x1="2388.5" x2="2388.5" y1="63.8745" y2="809.7168"/><rect fill="#FEFECE" filter="url(#f1n7b6uzjr6sge)" height="33.1201" style="stroke: #A80036; stroke-width: 1.5;" width="95" x="8" y="25.7544"/><text fill="#000000" font-family="sans-serif" font-size="14" lengthAdjust="spacingAndGlyphs" textLength="81" x="15" y="48.7983">InferRequest</text><rect fill="#FEFECE" filter="url(#f1n7b6uzjr6sge)" height="33.1201" style="stroke: #A80036; stroke-width: 1.5;" width="95" x="8" y="808.7168"/><text fill="#000000" font-family="sans-serif" font-size="14" lengthAdjust="spacingAndGlyphs" textLength="81" x="15" y="831.7607">InferRequest</text><rect fill="#FEFECE" filter="url(#f1n7b6uzjr6sge)" height="33.1201" style="stroke: #A80036; stroke-width: 1.5;" width="127" x="117" y="25.7544"/><text fill="#000000" font-family="sans-serif" font-size="14" lengthAdjust="spacingAndGlyphs" textLength="113" x="124" y="48.7983">InferRequestBase</text><rect fill="#FEFECE" filter="url(#f1n7b6uzjr6sge)" height="33.1201" style="stroke: #A80036; stroke-width: 1.5;" width="127" x="117" y="808.7168"/><text fill="#000000" font-family="sans-serif" font-size="14" lengthAdjust="spacingAndGlyphs" textLength="113" x="124" y="831.7607">InferRequestBase</text><rect fill="#FEFECE" filter="url(#f1n7b6uzjr6sge)" height="33.1201" style="stroke: #A80036; stroke-width: 1.5;" width="179" x="258" y="25.7544"/><text fill="#000000" font-family="sans-serif" font-size="14" lengthAdjust="spacingAndGlyphs" textLength="165" x="265" y="48.7983">CLDNNAsyncInferRequest</text><rect fill="#FEFECE" filter="url(#f1n7b6uzjr6sge)" height="33.1201" style="stroke: #A80036; stroke-width: 1.5;" width="179" x="258" y="808.7168"/><text fill="#000000" font-family="sans-serif" font-size="14" lengthAdjust="spacingAndGlyphs" textLength="165" x="265" y="831.7607">CLDNNAsyncInferRequest</text><rect fill="#FEFECE" filter="url(#f1n7b6uzjr6sge)" height="33.1201" style="stroke: #A80036; stroke-width: 1.5;" width="253" x="451" y="25.7544"/><text fill="#000000" font-family="sans-serif" font-size="14" lengthAdjust="spacingAndGlyphs" textLength="239" x="458" y="48.7983">AsyncInferRequestThreadSafeDefault</text><rect fill="#FEFECE" filter="url(#f1n7b6uzjr6sge)" height="33.1201" style="stroke: #A80036; stroke-width: 1.5;" width="253" x="451" y="808.7168"/><text fill="#000000" font-family="sans-serif" font-size="14" lengthAdjust="spacingAndGlyphs" textLength="239" x="458" y="831.7607">AsyncInferRequestThreadSafeDefault</text><rect fill="#FEFECE" filter="url(#f1n7b6uzjr6sge)" height="33.1201" style="stroke: #A80036; stroke-width: 1.5;" width="82" x="718" y="25.7544"/><text fill="#000000" font-family="sans-serif" font-size="14" lengthAdjust="spacingAndGlyphs" textLength="68" x="725" y="48.7983">std::thread</text><rect fill="#FEFECE" filter="url(#f1n7b6uzjr6sge)" height="33.1201" style="stroke: #A80036; stroke-width: 1.5;" width="82" x="718" y="808.7168"/><text fill="#000000" font-family="sans-serif" font-size="14" lengthAdjust="spacingAndGlyphs" textLength="68" x="725" y="831.7607">std::thread</text><rect fill="#FEFECE" filter="url(#f1n7b6uzjr6sge)" height="33.1201" style="stroke: #A80036; stroke-width: 1.5;" width="100" x="814" y="25.7544"/><text fill="#000000" font-family="sans-serif" font-size="14" lengthAdjust="spacingAndGlyphs" textLength="86" x="821" y="48.7983">TaskExecutor</text><rect fill="#FEFECE" filter="url(#f1n7b6uzjr6sge)" height="33.1201" style="stroke: #A80036; stroke-width: 1.5;" width="100" x="814" y="808.7168"/><text fill="#000000" font-family="sans-serif" font-size="14" lengthAdjust="spacingAndGlyphs" textLength="86" x="821" y="831.7607">TaskExecutor</text><rect fill="#FEFECE" filter="url(#f1n7b6uzjr6sge)" height="33.1201" style="stroke: #A80036; stroke-width: 1.5;" width="142" x="928" y="25.7544"/><text fill="#000000" font-family="sans-serif" font-size="14" lengthAdjust="spacingAndGlyphs" textLength="128" x="935" y="48.7983">InferRequestInternal</text><rect fill="#FEFECE" filter="url(#f1n7b6uzjr6sge)" height="33.1201" style="stroke: #A80036; stroke-width: 1.5;" width="142" x="928" y="808.7168"/><text fill="#000000" font-family="sans-serif" font-size="14" lengthAdjust="spacingAndGlyphs" textLength="128" x="935" y="831.7607">InferRequestInternal</text><rect fill="#FEFECE" filter="url(#f1n7b6uzjr6sge)" height="33.1201" style="stroke: #A80036; stroke-width: 1.5;" width="141" x="1084" y="25.7544"/><text fill="#000000" font-family="sans-serif" font-size="14" lengthAdjust="spacingAndGlyphs" textLength="127" x="1091" y="48.7983">CLDNNInferRequest</text><rect fill="#FEFECE" filter="url(#f1n7b6uzjr6sge)" height="33.1201" style="stroke: #A80036; stroke-width: 1.5;" width="141" x="1084" y="808.7168"/><text fill="#000000" font-family="sans-serif" font-size="14" lengthAdjust="spacingAndGlyphs" textLength="127" x="1091" y="831.7607">CLDNNInferRequest</text><rect fill="#FEFECE" filter="url(#f1n7b6uzjr6sge)" height="33.1201" style="stroke: #A80036; stroke-width: 1.5;" width="63" x="1239" y="25.7544"/><text fill="#000000" font-family="sans-serif" font-size="14" lengthAdjust="spacingAndGlyphs" textLength="49" x="1246" y="48.7983">network</text><rect fill="#FEFECE" filter="url(#f1n7b6uzjr6sge)" height="33.1201" style="stroke: #A80036; stroke-width: 1.5;" width="63" x="1239" y="808.7168"/><text fill="#000000" font-family="sans-serif" font-size="14" lengthAdjust="spacingAndGlyphs" textLength="49" x="1246" y="831.7607">network</text><rect fill="#FEFECE" filter="url(#f1n7b6uzjr6sge)" height="33.1201" style="stroke: #A80036; stroke-width: 1.5;" width="96" x="1316" y="25.7544"/><text fill="#000000" font-family="sans-serif" font-size="14" lengthAdjust="spacingAndGlyphs" textLength="82" x="1323" y="48.7983">network_impl</text><rect fill="#FEFECE" filter="url(#f1n7b6uzjr6sge)" height="33.1201" style="stroke: #A80036; stroke-width: 1.5;" width="96" x="1316" y="808.7168"/><text fill="#000000" font-family="sans-serif" font-size="14" lengthAdjust="spacingAndGlyphs" textLength="82" x="1323" y="831.7607">network_impl</text><rect fill="#FEFECE" filter="url(#f1n7b6uzjr6sge)" height="33.1201" style="stroke: #A80036; stroke-width: 1.5;" width="96" x="1430" y="25.7544"/><text fill="#000000" font-family="sans-serif" font-size="14" lengthAdjust="spacingAndGlyphs" textLength="82" x="1437" y="48.7983">primitive_inst</text><rect fill="#FEFECE" filter="url(#f1n7b6uzjr6sge)" height="33.1201" style="stroke: #A80036; stroke-width: 1.5;" width="96" x="1430" y="808.7168"/><text fill="#000000" font-family="sans-serif" font-size="14" lengthAdjust="spacingAndGlyphs" textLength="82" x="1437" y="831.7607">primitive_inst</text><rect fill="#FEFECE" filter="url(#f1n7b6uzjr6sge)" height="33.1201" style="stroke: #A80036; stroke-width: 1.5;" width="142" x="1540" y="25.7544"/><text fill="#000000" font-family="sans-serif" font-size="14" lengthAdjust="spacingAndGlyphs" textLength="128" x="1547" y="48.7983">typed_primitive_impl</text><rect fill="#FEFECE" filter="url(#f1n7b6uzjr6sge)" height="33.1201" style="stroke: #A80036; stroke-width: 1.5;" width="142" x="1540" y="808.7168"/><text fill="#000000" font-family="sans-serif" font-size="14" lengthAdjust="spacingAndGlyphs" textLength="128" x="1547" y="831.7607">typed_primitive_impl</text><rect fill="#FEFECE" filter="url(#f1n7b6uzjr6sge)" height="33.1201" style="stroke: #A80036; stroke-width: 1.5;" width="174" x="1696" y="25.7544"/><text fill="#000000" font-family="sans-serif" font-size="14" lengthAdjust="spacingAndGlyphs" textLength="160" x="1703" y="48.7983">typed_primitive_gpu_impl</text><rect fill="#FEFECE" filter="url(#f1n7b6uzjr6sge)" height="33.1201" style="stroke: #A80036; stroke-width: 1.5;" width="174" x="1696" y="808.7168"/><text fill="#000000" font-family="sans-serif" font-size="14" lengthAdjust="spacingAndGlyphs" textLength="160" x="1703" y="831.7607">typed_primitive_gpu_impl</text><rect fill="#FEFECE" filter="url(#f1n7b6uzjr6sge)" height="33.1201" style="stroke: #A80036; stroke-width: 1.5;" width="53" x="1884" y="25.7544"/><text fill="#000000" font-family="sans-serif" font-size="14" lengthAdjust="spacingAndGlyphs" textLength="39" x="1891" y="48.7983">kernel</text><rect fill="#FEFECE" filter="url(#f1n7b6uzjr6sge)" height="33.1201" style="stroke: #A80036; stroke-width: 1.5;" width="53" x="1884" y="808.7168"/><text fill="#000000" font-family="sans-serif" font-size="14" lengthAdjust="spacingAndGlyphs" textLength="39" x="1891" y="831.7607">kernel</text><rect fill="#FEFECE" filter="url(#f1n7b6uzjr6sge)" height="33.1201" style="stroke: #A80036; stroke-width: 1.5;" width="83" x="1984" y="25.7544"/><text fill="#000000" font-family="sans-serif" font-size="14" lengthAdjust="spacingAndGlyphs" textLength="69" x="1991" y="48.7983">gpu_toolkit</text><rect fill="#FEFECE" filter="url(#f1n7b6uzjr6sge)" height="33.1201" style="stroke: #A80036; stroke-width: 1.5;" width="83" x="1984" y="808.7168"/><text fill="#000000" font-family="sans-serif" font-size="14" lengthAdjust="spacingAndGlyphs" textLength="69" x="1991" y="831.7607">gpu_toolkit</text><rect fill="#FEFECE" filter="url(#f1n7b6uzjr6sge)" height="33.1201" style="stroke: #A80036; stroke-width: 1.5;" width="86" x="2097.5" y="25.7544"/><text fill="#000000" font-family="sans-serif" font-size="14" lengthAdjust="spacingAndGlyphs" textLength="72" x="2104.5" y="48.7983">gpu_queue</text><rect fill="#FEFECE" filter="url(#f1n7b6uzjr6sge)" height="33.1201" style="stroke: #A80036; stroke-width: 1.5;" width="86" x="2097.5" y="808.7168"/><text fill="#000000" font-family="sans-serif" font-size="14" lengthAdjust="spacingAndGlyphs" textLength="72" x="2104.5" y="831.7607">gpu_queue</text><rect fill="#FEFECE" filter="url(#f1n7b6uzjr6sge)" height="33.1201" style="stroke: #A80036; stroke-width: 1.5;" width="96" x="2257.5" y="25.7544"/><text fill="#000000" font-family="sans-serif" font-size="14" lengthAdjust="spacingAndGlyphs" textLength="82" x="2264.5" y="48.7983">opencl driver</text><rect fill="#FEFECE" filter="url(#f1n7b6uzjr6sge)" height="33.1201" style="stroke: #A80036; stroke-width: 1.5;" width="96" x="2257.5" y="808.7168"/><text fill="#000000" font-family="sans-serif" font-size="14" lengthAdjust="spacingAndGlyphs" textLength="82" x="2264.5" y="831.7607">opencl driver</text><rect fill="#FEFECE" filter="url(#f1n7b6uzjr6sge)" height="33.1201" style="stroke: #A80036; stroke-width: 1.5;" width="38" x="2367.5" y="25.7544"/><text fill="#000000" font-family="sans-serif" font-size="14" lengthAdjust="spacingAndGlyphs" textLength="24" x="2374.5" y="48.7983">app</text><rect fill="#FEFECE" filter="url(#f1n7b6uzjr6sge)" height="33.1201" style="stroke: #A80036; stroke-width: 1.5;" width="38" x="2367.5" y="808.7168"/><text fill="#000000" font-family="sans-serif" font-size="14" lengthAdjust="spacingAndGlyphs" textLength="24" x="2374.5" y="831.7607">app</text><polygon fill="#A80036" points="68.5,93.6289,58.5,97.6289,68.5,101.6289,64.5,97.6289" style="stroke: #A80036; stroke-width: 1.0;"/><line style="stroke: #A80036; stroke-width: 1.0;" x1="62.5" x2="2387.5" y1="97.6289" y2="97.6289"/><text fill="#000000" font-family="sans-serif" font-size="13" lengthAdjust="spacingAndGlyphs" textLength="24" x="74.5" y="92.7725">Infer</text><polygon fill="#A80036" points="170.5,125.3833,180.5,129.3833,170.5,133.3833,174.5,129.3833" style="stroke: #A80036; stroke-width: 1.0;"/><line style="stroke: #A80036; stroke-width: 1.0;" x1="57.5" x2="176.5" y1="129.3833" y2="129.3833"/><text fill="#000000" font-family="sans-serif" font-size="13" lengthAdjust="spacingAndGlyphs" textLength="24" x="64.5" y="124.5269">Infer</text><polygon fill="#A80036" points="337.5,157.1377,347.5,161.1377,337.5,165.1377,341.5,161.1377" style="stroke: #A80036; stroke-width: 1.0;"/><line style="stroke: #A80036; stroke-width: 1.0;" x1="182.5" x2="343.5" y1="161.1377" y2="161.1377"/><text fill="#000000" font-family="sans-serif" font-size="13" lengthAdjust="spacingAndGlyphs" textLength="110" x="189.5" y="156.2813">Infer_ThreadUnsafe</text><polygon fill="#A80036" points="567.5,188.8921,577.5,192.8921,567.5,196.8921,571.5,192.8921" style="stroke: #A80036; stroke-width: 1.0;"/><line style="stroke: #A80036; stroke-width: 1.0;" x1="349.5" x2="573.5" y1="192.8921" y2="192.8921"/><text fill="#000000" font-family="sans-serif" font-size="13" lengthAdjust="spacingAndGlyphs" textLength="94" x="356.5" y="188.0356">InferUsingAsync</text><polygon fill="#A80036" points="854,225.6465,864,229.6465,854,233.6465,858,229.6465" style="stroke: #A80036; stroke-width: 1.0;"/><line style="stroke: #A80036; stroke-width: 1.0;" x1="761" x2="860" y1="229.6465" y2="229.6465"/><text fill="#000000" font-family="sans-serif" font-size="13" lengthAdjust="spacingAndGlyphs" textLength="26" x="768" y="224.79">start</text><path d="M871,205.8921 L871,232.8921 L1117,232.8921 L1117,215.8921 L1107,205.8921 L871,205.8921 " fill="#FBFB77" filter="url(#f1n7b6uzjr6sge)" style="stroke: #A80036; stroke-width: 1.0;"/><path d="M1107,205.8921 L1107,215.8921 L1117,215.8921 L1107,205.8921 " fill="#FBFB77" style="stroke: #A80036; stroke-width: 1.0;"/><text fill="#000000" font-family="sans-serif" font-size="13" lengthAdjust="spacingAndGlyphs" textLength="225" x="877" y="225.79">start thread for executing opencl kernel</text><polygon fill="#A80036" points="749,267.4009,759,271.4009,749,275.4009,753,271.4009" style="stroke: #A80036; stroke-width: 1.0;"/><line style="stroke: #A80036; stroke-width: 1.0;" x1="579.5" x2="755" y1="271.4009" y2="271.4009"/><text fill="#000000" font-family="sans-serif" font-size="13" lengthAdjust="spacingAndGlyphs" textLength="49" x="586.5" y="266.5444">addTask</text><path d="M766,247.6465 L766,274.6465 L996,274.6465 L996,257.6465 L986,247.6465 L766,247.6465 " fill="#FBFB77" filter="url(#f1n7b6uzjr6sge)" style="stroke: #A80036; stroke-width: 1.0;"/><path d="M986,247.6465 L986,257.6465 L996,257.6465 L986,247.6465 " fill="#FBFB77" style="stroke: #A80036; stroke-width: 1.0;"/><text fill="#000000" font-family="sans-serif" font-size="13" lengthAdjust="spacingAndGlyphs" textLength="209" x="772" y="267.5444">put task to the thread for processing</text><line style="stroke: #A80036; stroke-width: 1.0;" x1="579.5" x2="621.5" y1="308.1553" y2="308.1553"/><line style="stroke: #A80036; stroke-width: 1.0;" x1="621.5" x2="621.5" y1="308.1553" y2="321.1553"/><line style="stroke: #A80036; stroke-width: 1.0;" x1="580.5" x2="621.5" y1="321.1553" y2="321.1553"/><polygon fill="#A80036" points="590.5,317.1553,580.5,321.1553,590.5,325.1553,586.5,321.1553" style="stroke: #A80036; stroke-width: 1.0;"/><text fill="#000000" font-family="sans-serif" font-size="13" lengthAdjust="spacingAndGlyphs" textLength="23" x="586.5" y="303.2988">wait</text><polygon fill="#A80036" points="590.5,348.9097,580.5,352.9097,590.5,356.9097,586.5,352.9097" style="stroke: #A80036; stroke-width: 1.0;"/><line style="stroke: #A80036; stroke-width: 1.0;" x1="584.5" x2="865" y1="352.9097" y2="352.9097"/><text fill="#000000" font-family="sans-serif" font-size="13" lengthAdjust="spacingAndGlyphs" textLength="121" x="596.5" y="348.0532">MakeNextStageTask</text><polygon fill="#A80036" points="989,380.6641,999,384.6641,989,388.6641,993,384.6641" style="stroke: #A80036; stroke-width: 1.0;"/><line style="stroke: #A80036; stroke-width: 1.0;" x1="579.5" x2="995" y1="384.6641" y2="384.6641"/><text fill="#000000" font-family="sans-serif" font-size="13" lengthAdjust="spacingAndGlyphs" textLength="24" x="586.5" y="379.8076">Infer</text><polygon fill="#A80036" points="1144.5,412.4185,1154.5,416.4185,1144.5,420.4185,1148.5,416.4185" style="stroke: #A80036; stroke-width: 1.0;"/><line style="stroke: #A80036; stroke-width: 1.0;" x1="1001" x2="1150.5" y1="416.4185" y2="416.4185"/><text fill="#000000" font-family="sans-serif" font-size="13" lengthAdjust="spacingAndGlyphs" textLength="48" x="1008" y="411.562">InferImpl</text><line style="stroke: #A80036; stroke-width: 1.0;" x1="1156.5" x2="1198.5" y1="448.1729" y2="448.1729"/><line style="stroke: #A80036; stroke-width: 1.0;" x1="1198.5" x2="1198.5" y1="448.1729" y2="461.1729"/><line style="stroke: #A80036; stroke-width: 1.0;" x1="1157.5" x2="1198.5" y1="461.1729" y2="461.1729"/><polygon fill="#A80036" points="1167.5,457.1729,1157.5,461.1729,1167.5,465.1729,1163.5,461.1729" style="stroke: #A80036; stroke-width: 1.0;"/><text fill="#000000" font-family="sans-serif" font-size="13" lengthAdjust="spacingAndGlyphs" textLength="85" x="1163.5" y="443.3164">execAndParse</text><polygon fill="#A80036" points="1260.5,488.9272,1270.5,492.9272,1260.5,496.9272,1264.5,492.9272" style="stroke: #A80036; stroke-width: 1.0;"/><line style="stroke: #A80036; stroke-width: 1.0;" x1="1156.5" x2="1266.5" y1="492.9272" y2="492.9272"/><text fill="#000000" font-family="sans-serif" font-size="13" lengthAdjust="spacingAndGlyphs" textLength="46" x="1163.5" y="488.0708">execute</text><polygon fill="#A80036" points="1354,520.6816,1364,524.6816,1354,528.6816,1358,524.6816" style="stroke: #A80036; stroke-width: 1.0;"/><line style="stroke: #A80036; stroke-width: 1.0;" x1="1272.5" x2="1360" y1="524.6816" y2="524.6816"/><text fill="#000000" font-family="sans-serif" font-size="13" lengthAdjust="spacingAndGlyphs" textLength="46" x="1279.5" y="519.8252">execute</text><line style="stroke: #A80036; stroke-width: 1.0;" x1="1366" x2="1408" y1="556.436" y2="556.436"/><line style="stroke: #A80036; stroke-width: 1.0;" x1="1408" x2="1408" y1="556.436" y2="569.436"/><line style="stroke: #A80036; stroke-width: 1.0;" x1="1367" x2="1408" y1="569.436" y2="569.436"/><polygon fill="#A80036" points="1377,565.436,1367,569.436,1377,573.436,1373,569.436" style="stroke: #A80036; stroke-width: 1.0;"/><text fill="#000000" font-family="sans-serif" font-size="13" lengthAdjust="spacingAndGlyphs" textLength="100" x="1373" y="551.5796">execute_primitive</text><polygon fill="#A80036" points="1468,597.1904,1478,601.1904,1468,605.1904,1472,601.1904" style="stroke: #A80036; stroke-width: 1.0;"/><line style="stroke: #A80036; stroke-width: 1.0;" x1="1366" x2="1474" y1="601.1904" y2="601.1904"/><text fill="#000000" font-family="sans-serif" font-size="13" lengthAdjust="spacingAndGlyphs" textLength="46" x="1373" y="596.334">execute</text><polygon fill="#A80036" points="1601,628.9448,1611,632.9448,1601,636.9448,1605,632.9448" style="stroke: #A80036; stroke-width: 1.0;"/><line style="stroke: #A80036; stroke-width: 1.0;" x1="1480" x2="1607" y1="632.9448" y2="632.9448"/><text fill="#000000" font-family="sans-serif" font-size="13" lengthAdjust="spacingAndGlyphs" textLength="46" x="1487" y="628.0884">execute</text><polygon fill="#A80036" points="1773,660.6992,1783,664.6992,1773,668.6992,1777,664.6992" style="stroke: #A80036; stroke-width: 1.0;"/><line style="stroke: #A80036; stroke-width: 1.0;" x1="1613" x2="1779" y1="664.6992" y2="664.6992"/><text fill="#000000" font-family="sans-serif" font-size="13" lengthAdjust="spacingAndGlyphs" textLength="77" x="1620" y="659.8428">execute_impl</text><polygon fill="#A80036" points="1900.5,692.4536,1910.5,696.4536,1900.5,700.4536,1904.5,696.4536" style="stroke: #A80036; stroke-width: 1.0;"/><line style="stroke: #A80036; stroke-width: 1.0;" x1="1785" x2="1906.5" y1="696.4536" y2="696.4536"/><text fill="#000000" font-family="sans-serif" font-size="13" lengthAdjust="spacingAndGlyphs" textLength="18" x="1792" y="691.5972">run</text><polygon fill="#A80036" points="2015.5,724.208,2025.5,728.208,2015.5,732.208,2019.5,728.208" style="stroke: #A80036; stroke-width: 1.0;"/><line style="stroke: #A80036; stroke-width: 1.0;" x1="1912.5" x2="2021.5" y1="728.208" y2="728.208"/><text fill="#000000" font-family="sans-serif" font-size="13" lengthAdjust="spacingAndGlyphs" textLength="91" x="1919.5" y="723.3516">enqueue_kernel</text><polygon fill="#A80036" points="2130.5,755.9624,2140.5,759.9624,2130.5,763.9624,2134.5,759.9624" style="stroke: #A80036; stroke-width: 1.0;"/><line style="stroke: #A80036; stroke-width: 1.0;" x1="2027.5" x2="2136.5" y1="759.9624" y2="759.9624"/><text fill="#000000" font-family="sans-serif" font-size="13" lengthAdjust="spacingAndGlyphs" textLength="91" x="2034.5" y="755.106">enqueue_kernel</text><polygon fill="#A80036" points="2295.5,787.7168,2305.5,791.7168,2295.5,795.7168,2299.5,791.7168" style="stroke: #A80036; stroke-width: 1.0;"/><line style="stroke: #A80036; stroke-width: 1.0;" x1="2142.5" x2="2301.5" y1="791.7168" y2="791.7168"/><text fill="#000000" font-family="sans-serif" font-size="13" lengthAdjust="spacingAndGlyphs" textLength="141" x="2149.5" y="786.8604">enqueueNDRangeKernel</text><!--
@startuml


skinparam sequence {


}

box "Main Thread"
participant InferRequest
participant InferRequestBase
participant CLDNNAsyncInferRequest
participant AsyncInferRequestThreadSafeDefault
end box

box "Worker Thread" #LightBlue
participant "std::thread"
participant  TaskExecutor
participant InferRequestInternal
participant CLDNNInferRequest
participant network
participant network_impl
participant primitive_inst
participant typed_primitive_impl
participant typed_primitive_gpu_impl
participant kernel
participant gpu_toolkit
participant gpu_queue
participant "opencl driver"
end box

app -> InferRequest:Infer

InferRequest->InferRequestBase:Infer

InferRequestBase->CLDNNAsyncInferRequest:Infer_ThreadUnsafe
CLDNNAsyncInferRequest->AsyncInferRequestThreadSafeDefault:InferUsingAsync

"std::thread" -> TaskExecutor:start
note right: start thread for executing opencl kernel

AsyncInferRequestThreadSafeDefault -> "std::thread":addTask
note right: put task to the thread for processing

AsyncInferRequestThreadSafeDefault->AsyncInferRequestThreadSafeDefault:wait



TaskExecutor-> AsyncInferRequestThreadSafeDefault:MakeNextStageTask

AsyncInferRequestThreadSafeDefault ->InferRequestInternal:Infer

InferRequestInternal ->CLDNNInferRequest:InferImpl
CLDNNInferRequest->CLDNNInferRequest:execAndParse
CLDNNInferRequest->network:execute
network->network_impl:execute
network_impl->network_impl:execute_primitive
network_impl->primitive_inst:execute
primitive_inst->typed_primitive_impl:execute
typed_primitive_impl->typed_primitive_gpu_impl:execute_impl
typed_primitive_gpu_impl->kernel:run
kernel->gpu_toolkit:enqueue_kernel
gpu_toolkit->gpu_queue:enqueue_kernel
gpu_queue->"opencl driver":enqueueNDRangeKernel
@enduml

PlantUML version 1.2019.09(Tue Aug 27 00:19:51 CST 2019)
(GPL source distribution)
Java Runtime: Java(TM) SE Runtime Environment
JVM: Java HotSpot(TM) 64-Bit Server VM
Java Version: 1.8.0_151-b12
Operating System: Windows 10
OS Version: 10.0
Default Encoding: GBK
Language: zh
Country: CN
--></g></svg>